# ProBuilder 4.4.0
# https://unity3d.com/unity/features/worldbuilding/probuilder
# 13.04.2021 00:28:57

mtllib ./Moss_VFX_Test_Base.mtl
o Moss VFX Test Base

g Moss VFX Test
v 12.49277 32.46783 20.34396
v 9.266063 32.84743 21.76168
v 6.804927 31.74965 21.34435
v 11.17389 31.21354 17.75911
v 5.811447 30.47311 20.92702
v 12.30746 28.74883 16.31995
v 10.88596 28.05662 14.49358
v 13.479 29.44103 17.23494
v 9.364119 29.26487 16.39602
v 4.721842 28.27356 19.51991
v 15.05872 28.19318 13.80775
v 16.31929 28.69664 14.97156
v 7.03355 27.25406 13.55585
v 4.202306 26.07401 16.89887
v 6.318485 25.24324 13.19909
v 9.725138 26.91978 11.55924
v 8.747657 25.09771 10.5604
v 10.8284 24.42305 9.389117
v 11.45397 26.05638 10.6413
v 13.76118 24.43362 7.057616
v 13.79815 27.68972 12.64393
v 17.80998 27.63754 11.29555
v 19.15958 27.95226 12.70819
v 15.11078 25.87822 8.470259
v 16.46038 27.32281 9.882902
v 19.21988 27.68483 10.40254
v 19.88065 27.99955 12.08562
v 17.89836 25.9255 7.036381
v 17.2376 24.4809 5.353302
v 20.62053 24.52818 4.257992
v 18.55912 27.3701 8.71946
v 20.53629 27.73212 10.11854
v 20.50822 28.04684 12.07205
v 21.73237 27.45448 11.70182
v 20.59245 25.97279 6.211507
v 20.56437 27.41739 8.165024
v 22.13422 27.13975 9.828477
v 22.52527 26.86211 12.52328
v 23.3009 26.54738 10.73012
v 22.53608 26.82502 7.955132
v 24.07654 26.23265 8.936953
v 22.93794 25.38041 6.081792
v 23.3398 23.93581 4.208451
v 24.85217 24.78804 7.143787
v 25.62781 23.34343 5.350621
v -16.21603 23.30302 -7.457086
v -16.55581 24.50237 -10.96171
v -13.94549 22.81828 -9.47395
v -18.55433 24.50863 -9.711194
v -17.9249 23.5413 -4.40574
v -19.68106 24.79988 -13.39565
v -20.24446 24.85481 -7.162517
v -20.98543 24.8907 -11.07002
v -22.95213 26.48853 -3.016382
v -19.71087 23.85565 -0.1571326
v -23.31246 24.3152 1.538388
v -28.46168 24.40434 1.234744
v -23.64227 26.5294 -9.020811
v -25.3999 26.55123 -2.629704
v -29.26134 25.96516 -1.836594
v -27.4371 26.7798 -3.639034
v -29.56249 27.44089 -4.331478
v -26.24487 26.42139 -8.606801
v -24.0331 25.94671 -12.60719
v -22.97155 23.98999 -15.03808
v -29.72002 28.11386 -7.467169
v -30.55446 28.56561 -6.305195
v -27.72702 26.31337 -12.19705
v -30.42715 28.44411 -10.12975
v -32.34702 29.29639 -8.095846
v -32.91839 27.47198 -11.7232
v -33.24671 28.84661 -9.56867
v -31.35215 26.40636 -13.71597
v -29.54246 27.16562 -11.96232
v -28.51042 24.54028 -15.87678
v -27.32734 25.17056 -15.15778
v -29.9201 22.98321 -18.2572
v -26.14425 25.20403 -14.43878
v -26.6093 24.22511 -17.35756
v -23.53231 20.0417 -20.40281
v -24.56148 23.48031 -16.68051
v -22.25672 20.9309 -19.38997
v -21.25906 18.39437 -23.44072
v -20.98112 21.21467 -18.37712
v -18.90807 18.8114 -21.42237
v -16.60383 23.34955 -14.90804
v -17.91577 19.25885 -19.28725
v -14.04536 21.25506 -16.29666
v -15.2871 18.6788 -17.7674
v -12.50927 17.18303 -16.90821
v -16.58735 14.9249 -22.23494
v -17.46457 14.4336 -23.9012
v -15.71013 15.41621 -20.56867
v -14.08136 14.9324 -18.54892
v -12.30027 14.44859 -16.91899
v -14.26662 11.03841 -23.0475
v -14.51375 10.55614 -25.03139
v -14.01949 11.52068 -21.06361
v -12.87562 11.18599 -19.33043
v -11.73175 10.8513 -17.59725
v -13.96428 8.08876 -25.17008
v -14.58191 8.869574 -25.63168
v -13.69105 8.363492 -23.36267
v -13.41781 8.638225 -21.55526
v -12.13737 8.475834 -19.76737
v -10.85694 8.313442 -17.97948
v -8.993395 11.21075 -15.03963
v -13.41482 5.621379 -25.30877
v -13.11547 5.688576 -23.67784
v -12.81613 5.755773 -22.04691
v -12.45128 3.633456 -25.82159
v -14.17217 4.797244 -26.58644
v -11.39913 5.765677 -20.20432
v -11.71601 3.700654 -24.39162
v -11.41667 3.767851 -22.7607
v -11.22811 1.645533 -26.7521
v -10.31655 1.712732 -25.1054
v -12.94159 1.933243 -28.57078
v -10.01721 1.77993 -23.47448
v -13.58751 3.365243 -27.72048
v -15.44379 2.220953 -29.78453
v -9.999671 3.777758 -20.91811
v -8.600212 1.789838 -21.63189
v -15.43489 3.611909 -28.00878
v -17.08633 2.56303 -30.27458
v -15.17822 6.237361 -25.89428
v -16.88445 3.389736 -27.86776
v -18.38487 2.86216 -29.57071
v -18.75581 3.004262 -27.72107
v -18.00283 4.688073 -25.92677
v -19.12676 3.613863 -25.87143
v -18.85229 5.371223 -23.84072
v -20.54971 4.400703 -23.57794
v -17.24158 8.803104 -24.02509
v -21.97266 5.187543 -21.28444
v -19.42599 6.201174 -22.44686
v -18.57784 8.710377 -21.81001
v -20.10582 9.918077 -18.76135
v -21.27791 7.180018 -19.40463
v -22.44453 10.37016 -16.17033
v -23.50066 6.395241 -18.23579
v -23.72397 9.786455 -15.56599
v -23.24277 6.588379 -16.68683
v -9.041868 7.644995 -14.50399
v -9.388128 6.15146 -16.77181
v -9.982125 5.775582 -18.36172
v -9.026376 3.787664 -18.76368
v -7.62692 1.799747 -19.47747
v -7.948949 3.955571 -16.74444
v -6.688787 1.228466 -17.07364
v -6.113109 1.396235 -15.23355
v -7.315229 4.123478 -14.41337
v -5.931324 1.36755 -12.12123
v -7.187921 4.132448 -12.12641
v -4.414148 1.761943 -8.813032
v -7.281775 8.03987 -13.1139
v -5.670631 4.141418 -8.734578
v -5.143352 8.443935 -9.959029
v -15.93823 8.626921 -27.09549
v -14.07816 23.43369 -12.51717
v -13.35426 22.33777 -11.549
v -13.70304 22.11114 -13.60838
v -11.17311 17.74785 -15.7801
v -11.93672 18.6199 -15.82334
v -11.13275 16.92055 -15.78983
v -8.561521 18.19138 -12.95979
v -30.97736 23.90932 1.739982
v -2.518399 5.106265 -4.525906
v 8.227381 21.8387 9.20653
v 10.53863 21.16404 8.098825
v 7.290658 21.98421 13.86957
v 7.641815 18.92926 7.397263
v 9.93682 18.25459 7.059833
v 6.165889 19.07475 13.9134
v 0.079005 25.41095 21.04567
v -0.4405468 23.21138 20.57285
v -0.4406168 19.67204 20.57278
v 4.20224 19.86347 16.89881

vt 1.68284 0.8180779
vt 1.810931 0.8501164
vt 1.887609 0.7950552
vt 1.713838 0.6928374
vt 1.905932 0.7479151
vt 1.63351 0.6032997
vt 1.676916 0.5147769
vt 1.599581 0.6579236
vt 1.752925 0.5931416
vt 1.913913 0.6473933
vt 1.520778 0.5257721
vt 1.480613 0.5861462
vt 1.810817 0.4364009
vt 1.90028 0.5087296
vt 1.807457 0.3792838
vt 1.703701 0.3807894
vt 1.713151 0.3027864
vt 1.624038 0.2647623
vt 1.62507 0.3452514
vt 1.513003 0.2059776
vt 1.560942 0.4653972
vt 1.408045 0.4482444
vt 1.361645 0.5143695
vt 1.483724 0.2940482
vt 1.454445 0.3821186
vt 1.355306 0.4287932
vt 1.335022 0.4990542
vt 1.378751 0.2663254
vt 1.381913 0.1741189
vt 1.254367 0.1628899
vt 1.375589 0.358532
vt 1.306112 0.4299719
vt 1.311945 0.5043689
vt 1.256556 0.4893836
vt 1.277323 0.2592326
vt 1.300278 0.3555747
vt 1.23655 0.4206995
vt 1.217517 0.5128386
vt 1.18334 0.4498676
vt 1.216545 0.3520154
vt 1.149163 0.3868967
vt 1.179418 0.2613857
vt 1.142291 0.1707565
vt 1.097864 0.30198
vt 1.046566 0.2170635
vt 0.5214348 0.7933547
vt 0.5418028 0.7263054
vt 0.4601601 0.7523572
vt 0.5915586 0.7449692
vt 0.5662944 0.8578626
vt 0.6224697 0.6582106
vt 0.6370246 0.7993869
vt 0.6558058 0.70621
vt 0.7205876 0.9017618
vt 0.6138272 0.9504805
vt 0.7079487 0.9769907
vt 0.8368714 0.9449283
vt 0.7381541 0.7606837
vt 0.7820752 0.8989913
vt 0.8722668 0.8901067
vt 0.8350023 0.8683197
vt 0.8944207 0.8499959
vt 0.8017953 0.7555791
vt 0.7420815 0.6687949
vt 0.6962399 0.593371
vt 0.9050255 0.7856539
vt 0.9302637 0.8138823
vt 0.8375759 0.6640917
vt 0.9258906 0.7250288
vt 0.9820986 0.772885
vt 0.9781752 0.6633178
vt 1 0.7287045
vt 0.9286399 0.6118896
vt 0.8911871 0.6711032
vt 0.8394343 0.5528943
vt 0.8162804 0.5834808
vt 0.8590121 0.4711407
vt 0.7871951 0.6064653
vt 0.7890303 0.5245045
vt 0.6709453 0.4168491
vt 0.7307088 0.541013
vt 0.6480643 0.4579623
vt 0.5980492 0.3375751
vt 0.6191663 0.4913638
vt 0.5437355 0.4012726
vt 0.5315401 0.6206219
vt 0.5235083 0.4611259
vt 0.447108 0.5750333
vt 0.4523813 0.5020723
vt 0.3684448 0.5169201
vt 0.4474061 0.3448946
vt 0.4643359 0.2958512
vt 0.4304764 0.3939385
vt 0.3851684 0.4425165
vt 0.336073 0.4829051
vt 0.3510766 0.2885169
vt 0.3524287 0.2354917
vt 0.3497245 0.3415422
vt 0.3179556 0.3829608
vt 0.2861868 0.4243793
vt 0.3142451 0.2036702
vt 0.3373626 0.1998563
vt 0.3101815 0.2501262
vt 0.3061175 0.2965822
vt 0.2726652 0.342149
vt 0.2392132 0.3877156
vt 0.221669 0.5017171
vt 0.2760618 0.1718487
vt 0.2692862 0.2117355
vt 0.2625108 0.2516223
vt 0.2323472 0.1396386
vt 0.2867034 0.1281123
vt 0.2273751 0.3013369
vt 0.2147323 0.1771231
vt 0.2079569 0.2170097
vt 0.1821768 0.09914459
vt 0.1601783 0.1425108
vt 0.2276421 0.05226147
vt 0.1534029 0.1823974
vt 0.2579344 0.08676823
vt 0.2927193 0.01527458
vt 0.1728212 0.2667243
vt 0.1182673 0.232112
vt 0.3063214 0.0738751
vt 0.3369611 0
vt 0.3260309 0.1572524
vt 0.3401571 0.06690855
vt 0.3722223 0.01338646
vt 0.3828581 0.05584465
vt 0.3808688 0.1223903
vt 0.3981401 0.1042578
vt 0.4087799 0.174741
vt 0.4413418 0.1597801
vt 0.3652812 0.2212427
vt 0.4845435 0.2153028
vt 0.4312934 0.214447
vt 0.4351403 0.2653729
vt 0.485136 0.3430882
vt 0.4870696 0.2874501
vt 0.5477816 0.3965268
vt 0.5345398 0.2930177
vt 0.5737944 0.396476
vt 0.5300466 0.3324127
vt 0.1874378 0.4683682
vt 0.181205 0.3954272
vt 0.1922394 0.3510517
vt 0.1487185 0.3213514
vt 0.0941646 0.2867388
vt 0.1235966 0.3754124
vt 0.06516036 0.3395194
vt 0.05251319 0.3869044
vt 0.1095076 0.4343857
vt 0.04770803 0.4590391
vt 0.1064311 0.4877417
vt 0.01390246 0.5478662
vt 0.1475969 0.514327
vt 0.06879244 0.5735833
vt 0.09843995 0.602914
vt 0.3686761 0.1561968
vt 0.4695748 0.6895354
vt 0.4406835 0.701526
vt 0.4471038 0.6495037
vt 0.3408339 0.5568606
vt 0.368488 0.5630869
vt 0.3316087 0.5463043
vt 0.2803039 0.6406654
vt 0.894505 0.9374346
vt 0 0.6987094
vt 1.683492 0.1879734
vt 1.585639 0.1539684
vt 1.721213 0.3470426
vt 1.661606 0.06347445
vt 1.564368 0.05635351
vt 1.719769 0.2833383
vt 2.046566 0.6092546
vt 2.032933 0.5459197
vt 1.979303 0.477173
vt 1.806172 0.388101

vn 0.07358776 0.7909737 -0.6074088
vn -0.2075209 0.7178715 -0.6645266
vn -0.3418536 0.7210332 -0.6027
vn 0.01817777 0.7944216 -0.6070946
vn -0.4838995 0.649226 -0.5868108
vn 0.1505963 0.8351527 -0.5289997
vn -0.007107104 0.8771832 -0.4801032
vn -0.01110605 0.8384448 -0.5448734
vn -0.2984923 0.7754738 -0.5563657
vn -0.5878975 0.6945122 -0.4147643
vn -0.09143165 0.9456258 -0.3121409
vn -0.03213866 0.9461005 -0.3222747
vn -0.4723841 0.7009389 -0.5343574
vn -0.7416008 0.4942312 -0.4536121
vn -0.6727611 0.425189 -0.6054806
vn -0.1721963 0.7852188 -0.5947939
vn -0.4197353 0.5989985 -0.681926
vn -0.3332613 0.6311355 -0.7004319
vn -0.1779797 0.7962764 -0.5781584
vn -0.3353936 0.7564722 -0.5614809
vn -0.1800912 0.9067891 -0.3811834
vn -0.05986492 0.9809492 -0.1848101
vn -0.04552112 0.9807836 -0.1897134
vn -0.2931859 0.8035334 -0.5180502
vn -0.2192204 0.9114145 -0.3482327
vn -0.09483105 0.9854397 -0.1411234
vn -0.119876 0.9831089 -0.1382987
vn -0.2445119 0.7838069 -0.5708421
vn -0.2433943 0.7811649 -0.5749266
vn -0.01623419 0.8034467 -0.5951553
vn -0.1700275 0.9139233 -0.3685577
vn 0.1385485 0.9792721 -0.1477517
vn 0.1642687 0.9742264 -0.154592
vn 0.4885554 0.8704728 -0.05992189
vn -0.01022024 0.8036469 -0.5950186
vn 0.05915477 0.9224918 -0.3814571
vn 0.4102883 0.9099101 -0.06104941
vn 0.5205922 0.8537152 0.01241211
vn 0.42823 0.9036673 0.002101309
vn 0.3708495 0.8796456 -0.2978157
vn 0.4506942 0.8643238 -0.223202
vn 0.3391616 0.7825587 -0.5220836
vn 0.3142987 0.7906031 -0.5255122
vn 0.4651031 0.7690063 -0.4385299
vn 0.4270203 0.7854322 -0.4480513
vn 0.3316751 0.9209446 0.2045792
vn 0.1770823 0.9683623 0.1758304
vn 0.4155373 0.8721644 0.2581824
vn 0.2059927 0.971755 0.1151483
vn 0.4438457 0.8904301 0.1006736
vn 0.003411876 0.9722466 -0.2339334
vn 0.3832583 0.9236212 0.006074604
vn 0.2762364 0.9547718 -0.11002
vn 0.2875379 0.9366634 0.1999588
vn 0.4276764 0.8525983 0.3002814
vn 0.1523132 0.887255 0.4354071
vn 0.00454466 0.8793672 0.4761225
vn 0.2070633 0.9724755 -0.1068464
vn 0.04555397 0.9706813 0.236014
vn 0.02585634 0.8906299 0.4539931
vn 0.1510803 0.9688224 0.1963617
vn 0.3300107 0.8994635 0.2864585
vn 0.0411961 0.9975927 -0.05578221
vn 0.2645086 0.9123867 -0.3123871
vn 0.1771468 0.839335 -0.5139413
vn 0.5033976 0.8637633 0.02244413
vn 0.5242778 0.8493181 0.06157525
vn 0.2334542 0.9488927 -0.212372
vn 0.3133997 0.9040625 -0.2906055
vn 0.2795273 0.9283571 -0.244985
vn 0.05833537 0.8766453 -0.4775878
vn 0.3538772 0.8119983 -0.464144
vn 0.1071495 0.8510376 -0.5140564
vn 0.2937714 0.8722119 -0.3910817
vn -0.0761413 0.8576378 -0.5085862
vn 0.04426394 0.9021477 -0.4291506
vn -0.1012254 0.7529358 -0.6502624
vn 0.2094701 0.8846616 -0.4165287
vn 0.1558958 0.840632 -0.5186852
vn -0.03431821 0.7351693 -0.6770143
vn 0.3370326 0.8306413 -0.44322
vn 0.2237748 0.8027233 -0.5527748
vn 0.3293106 0.7350523 -0.5926658
vn 0.2268396 0.7865102 -0.5744088
vn 0.466754 0.6962513 -0.5453209
vn 0.1633772 0.7174851 -0.6771433
vn 0.4871079 0.6446059 -0.5892446
vn 0.1939984 0.4141721 -0.8892841
vn 0.4458607 0.4077292 -0.796847
vn 0.4955298 0.239759 -0.8348448
vn 0.6987774 0.5028636 -0.5087615
vn 0.6796821 0.5987422 -0.4237217
vn 0.7188338 0.4446637 -0.5343708
vn 0.71061 0.3241158 -0.6244856
vn 0.7301377 0.1750051 -0.660509
vn 0.8754868 0.4140249 -0.2492112
vn 0.8511595 0.3693674 -0.3729547
vn 0.8450768 0.3654936 -0.3902046
vn 0.8019933 0.3083146 -0.5116139
vn 0.7594988 0.2941737 -0.5801926
vn 0.8609415 0.2220051 -0.4577047
vn 0.4402875 0.2372707 -0.8659385
vn 0.9572319 0.2270393 -0.1793325
vn 0.8963042 0.2543803 -0.3632208
vn 0.7883329 0.3018105 -0.5361357
vn 0.7489762 0.3145908 -0.5831529
vn 0.837899 0.1583059 -0.5223643
vn 0.8357432 0.3543883 -0.4194547
vn 0.8873037 0.4113397 -0.2085471
vn 0.8150727 0.4503704 -0.3644488
vn 0.6905536 0.5797664 -0.4324427
vn 0.4280716 0.448213 -0.7847674
vn 0.7031628 0.469123 -0.5343086
vn 0.7363655 0.6162268 -0.2793394
vn 0.7117014 0.6197689 -0.330708
vn 0.6546162 0.6135843 -0.441579
vn 0.7322699 0.6181312 -0.2858226
vn 0.5297495 0.6032531 -0.5961973
vn 0.4615151 0.6560327 -0.5971808
vn 0.3169827 0.717373 -0.6204015
vn 0.6737494 0.5995303 -0.4320013
vn 0.6721462 0.6190355 -0.4062197
vn 0.1272902 0.7200588 -0.6821382
vn 0.06040207 0.9158795 -0.3968832
vn -0.2201825 0.5202391 -0.8251491
vn -0.1885889 0.855508 -0.4822243
vn -0.08578078 0.9705524 -0.2250991
vn -0.3367071 0.8862644 -0.3180625
vn -0.4698644 0.7141228 -0.5188988
vn -0.6077681 0.6691459 -0.4276234
vn -0.5974311 0.5589113 -0.5750602
vn -0.4800282 0.6944156 -0.5360596
vn -0.6702219 0.2876301 -0.6841576
vn -0.5060394 0.6689226 -0.5444875
vn -0.6473441 0.5287407 -0.5489798
vn -0.7751531 0.3884672 -0.4982278
vn -0.6824677 0.4184658 -0.5992697
vn -0.590497 0.5219909 -0.6154989
vn -0.5907229 0.4576835 -0.6645091
vn -0.7456089 0.4852048 -0.4567753
vn -0.7543675 0.3711648 -0.5414483
vn -0.9599391 -0.209611 0.1859575
vn 0.9271299 0.1778156 -0.3298665
vn 0.9103433 0.2386065 -0.3381449
vn 0.7777027 0.4156515 -0.4716061
vn 0.734288 0.5697841 -0.3690084
vn 0.7484304 0.5769719 -0.3270401
vn 0.8151575 0.501175 -0.2904167
vn 0.8608115 0.43053 -0.2713809
vn 0.8861132 0.4318833 -0.1681672
vn 0.8776125 0.4466366 -0.1741041
vn 0.8834035 0.4016635 -0.2413808
vn 0.9122065 0.2337786 -0.3364919
vn 0.8222116 0.4094422 -0.3953798
vn 0.764149 -0.1734312 -0.6212874
vn 0.8866285 0.1472442 -0.4384165
vn 0.8162942 -0.248445 -0.5214776
vn 0.3934776 0.5203532 -0.757897
vn 0.6984047 0.2147698 -0.6827187
vn 0.6329316 0.7347379 0.1209887
vn 0.4716974 0.868035 0.1549735
vn 0.7941658 0.6014408 0.08700397
vn 0.8889332 0.4139336 -0.1961042
vn 0.5295984 0.3178893 -0.7864298
vn 0.6054265 0.4670139 -0.1955626
vn 0.6812547 0.6161384 0.3953045
vn 0.6356485 0.05162174 -0.7702507
vn 0.6351545 0.04583032 -0.7710019
vn 0.6346605 0.04003891 -0.7717532
vn 0.5984821 0.4927446 -0.6316817
vn 0.7296082 0.04362179 -0.6824728
vn -0.07922416 0.8802038 0.4679368
vn 0.7672462 0.4785956 -0.4259609
vn 0.7672575 0.4978185 -0.4043424
vn 0.767235 0.4593728 -0.4475793
vn 0.8013373 -0.2525364 -0.542295
vn -0.3445219 0.406529 -0.8461908
vn -0.32722 0.3901067 -0.8602197
vn -0.3099181 0.3736843 -0.8742487
vn -0.7015535 -0.3383081 -0.6271924
vn -0.8266096 -0.05196282 -0.4128396
vn -0.9516658 0.2343825 -0.1984867
vn -0.226659 0.5468259 -0.8059821
vn -0.131932 0.444859 -0.8723099
vn -0.03720501 0.3428922 -0.9386377
vn -0.915819 0.3511105 -0.1949282
vn -0.9191288 0.3355679 -0.2055047
vn -0.9224385 0.3200254 -0.2160811
vn -0.5706981 0.6812081 -0.4585401
vn -0.635039 0.4927187 -0.5526555
vn -0.6993799 0.3042292 -0.6467708
vn -0.6205454 2.665768E-05 -0.7841705

usemtl Moss_VFX_Base
f 49/49/49 53/53/53 52/52/52
f 55/55/55 54/54/54 56/56/56
f 61/61/61 62/62/62 60/60/60
f 63/63/63 61/61/61 59/59/59
f 53/53/53 64/64/64 58/58/58
f 61/61/61 66/66/66 62/62/62
f 66/66/66 67/67/67 62/62/62
f 65/65/65 81/81/81 78/78/78
f 82/82/82 79/79/79 81/81/81
f 86/86/86 84/84/84 65/65/65
f 86/86/86 65/65/65 51/51/51
f 87/87/87 84/84/84 86/86/86
f 90/90/90 89/89/89 88/88/88
f 97/97/97 92/92/92 96/96/96
f 91/91/91 93/93/93 98/98/98
f 102/102/102 97/97/97 101/101/101
f 120/120/119 124/124/123 112/112/112
f 124/124/123 126/126/125 112/112/112
f 106/106/106 100/100/100 107/107/107
f 145/145/144 107/107/107 144/144/143
f 92/92/158 97/97/158 159/159/158
f 97/97/159 102/102/159 159/159/159
f 161/161/163 162/162/163 160/160/163
f 163/163/170 164/164/170 166/166/170
f 165/165/171 163/163/171 166/166/171
f 57/57/172 60/60/172 167/167/172
f 157/157/176 158/158/176 168/168/176
f 112/112/112 101/101/101 108/108/108
f 112/112/112 102/102/102 101/101/101
f 112/112/112 126/126/125 102/102/102
f 3/3/3 2/2/2 1/1/1
f 1/1/1 4/4/4 3/3/3
f 5/5/5 3/3/3 4/4/4
f 4/4/4 9/9/9 5/5/5
f 6/6/6 4/4/4 1/1/1
f 1/1/1 8/8/8 6/6/6
f 4/4/4 6/6/6 7/7/7
f 7/7/7 9/9/9 4/4/4
f 10/10/10 5/5/5 9/9/9
f 9/9/9 13/13/13 10/10/10
f 11/11/11 6/6/6 8/8/8
f 8/8/8 12/12/12 11/11/11
f 7/7/7 6/6/6 11/11/11
f 11/11/11 21/21/21 7/7/7
f 13/13/13 9/9/9 7/7/7
f 7/7/7 16/16/16 13/13/13
f 14/14/14 10/10/10 13/13/13
f 13/13/13 15/15/15 14/14/14
f 15/15/15 13/13/13 16/16/16
f 16/16/16 17/17/17 15/15/15
f 18/18/18 17/17/17 16/16/16
f 16/16/16 19/19/19 18/18/18
f 19/19/19 16/16/16 7/7/7
f 7/7/7 21/21/21 19/19/19
f 20/20/20 18/18/18 19/19/19
f 19/19/19 24/24/24 20/20/20
f 22/22/22 11/11/11 12/12/12
f 12/12/12 23/23/23 22/22/22
f 24/24/24 19/19/19 21/21/21
f 21/21/21 25/25/25 24/24/24
f 25/25/25 21/21/21 11/11/11
f 11/11/11 22/22/22 25/25/25
f 26/26/26 22/22/22 23/23/23
f 23/23/23 27/27/27 26/26/26
f 25/25/25 22/22/22 26/26/26
f 26/26/26 31/31/31 25/25/25
f 20/20/20 24/24/24 28/28/28
f 28/28/28 29/29/29 20/20/20
f 30/30/30 29/29/29 28/28/28
f 28/28/28 35/35/35 30/30/30
f 24/24/24 25/25/25 31/31/31
f 31/31/31 28/28/28 24/24/24
f 32/32/32 26/26/26 27/27/27
f 27/27/27 33/33/33 32/32/32
f 32/32/32 33/33/33 34/34/34
f 34/34/34 37/37/37 32/32/32
f 35/35/35 28/28/28 31/31/31
f 31/31/31 36/36/36 35/35/35
f 36/36/36 31/31/31 26/26/26
f 26/26/26 32/32/32 36/36/36
f 36/36/36 32/32/32 37/37/37
f 37/37/37 40/40/40 36/36/36
f 37/37/37 34/34/34 38/38/38
f 38/38/38 39/39/39 37/37/37
f 40/40/40 37/37/37 39/39/39
f 39/39/39 41/41/41 40/40/40
f 35/35/35 36/36/36 40/40/40
f 40/40/40 42/42/42 35/35/35
f 30/30/30 35/35/35 42/42/42
f 42/42/42 43/43/43 30/30/30
f 42/42/42 40/40/40 41/41/41
f 41/41/41 44/44/44 42/42/42
f 43/43/43 42/42/42 44/44/44
f 44/44/44 45/45/45 43/43/43
f 46/46/46 48/48/48 47/47/47
f 47/47/47 49/49/49 46/46/46
f 50/50/50 46/46/46 49/49/49
f 49/49/49 52/52/52 50/50/50
f 49/49/49 47/47/47 51/51/51
f 51/51/51 53/53/53 49/49/49
f 50/50/50 52/52/52 54/54/54
f 54/54/54 55/55/55 50/50/50
f 59/59/59 57/57/57 56/56/56
f 56/56/56 54/54/54 59/59/59
f 53/53/53 58/58/58 54/54/54
f 54/54/54 52/52/52 53/53/53
f 63/63/63 59/59/59 54/54/54
f 54/54/54 58/58/58 63/63/63
f 61/61/61 60/60/60 57/57/57
f 57/57/57 59/59/59 61/61/61
f 68/68/68 63/63/63 58/58/58
f 58/58/58 64/64/64 68/68/68
f 53/53/53 51/51/51 65/65/65
f 65/65/65 64/64/64 53/53/53
f 61/61/61 63/63/63 68/68/68
f 68/68/68 66/66/66 61/61/61
f 67/67/67 66/66/66 69/69/69
f 69/69/69 70/70/70 67/67/67
f 70/70/70 69/69/69 71/71/71
f 71/71/71 72/72/72 70/70/70
f 73/73/73 71/71/71 69/69/69
f 69/69/69 74/74/74 73/73/73
f 74/74/74 69/69/69 66/66/66
f 66/66/66 68/68/68 74/74/74
f 75/75/75 73/73/73 74/74/74
f 74/74/74 76/76/76 75/75/75
f 76/76/76 74/74/74 68/68/68
f 68/68/68 78/78/78 76/76/76
f 77/77/77 75/75/75 76/76/76
f 76/76/76 79/79/79 77/77/77
f 65/65/65 78/78/78 68/68/68
f 68/68/68 64/64/64 65/65/65
f 79/79/79 76/76/76 78/78/78
f 78/78/78 81/81/81 79/79/79
f 80/80/80 77/77/77 79/79/79
f 79/79/79 82/82/82 80/80/80
f 83/83/83 80/80/80 82/82/82
f 82/82/82 85/85/85 83/83/83
f 82/82/82 81/81/81 65/65/65
f 65/65/65 84/84/84 82/82/82
f 85/85/85 82/82/82 84/84/84
f 84/84/84 87/87/87 85/85/85
f 87/87/87 86/86/86 88/88/88
f 88/88/88 89/89/89 87/87/87
f 83/83/83 85/85/85 91/91/91
f 91/91/91 92/92/92 83/83/83
f 85/85/85 87/87/87 93/93/93
f 93/93/93 91/91/91 85/85/85
f 93/93/93 87/87/87 89/89/89
f 89/89/89 94/94/94 93/93/93
f 94/94/94 89/89/89 90/90/90
f 90/90/90 95/95/95 94/94/94
f 96/96/96 92/92/92 91/91/91
f 91/91/91 98/98/98 96/96/96
f 98/98/98 93/93/93 94/94/94
f 94/94/94 99/99/99 98/98/98
f 99/99/99 94/94/94 95/95/95
f 95/95/95 100/100/100 99/99/99
f 101/101/101 97/97/97 96/96/96
f 96/96/96 103/103/103 101/101/101
f 103/103/103 96/96/96 98/98/98
f 98/98/98 104/104/104 103/103/103
f 104/104/104 98/98/98 99/99/99
f 99/99/99 105/105/105 104/104/104
f 105/105/105 99/99/99 100/100/100
f 100/100/100 106/106/106 105/105/105
f 108/108/108 101/101/101 103/103/103
f 103/103/103 109/109/109 108/108/108
f 109/109/109 103/103/103 104/104/104
f 104/104/104 110/110/110 109/109/109
f 110/110/110 104/104/104 105/105/105
f 105/105/105 113/113/113 110/110/110
f 111/111/111 108/108/108 109/109/109
f 109/109/109 114/114/114 111/111/111
f 112/112/112 108/108/108 111/111/111
f 111/111/111 120/120/119 112/112/112
f 113/113/113 105/105/105 106/106/106
f 106/106/106 146/146/145 113/113/113
f 114/114/114 109/109/109 110/110/110
f 110/110/110 115/115/115 114/114/114
f 115/115/115 110/110/110 113/113/113
f 113/113/113 122/122/121 115/115/115
f 116/116/116 111/111/111 114/114/114
f 114/114/114 117/117/117 116/116/116
f 117/117/117 114/114/114 115/115/115
f 115/115/115 119/119/115 117/117/117
f 111/111/111 116/116/116 118/118/118
f 118/118/118 120/120/119 111/111/111
f 120/120/119 118/118/118 121/121/120
f 121/121/120 124/124/123 120/120/119
f 119/119/115 115/115/115 122/122/121
f 122/122/121 123/123/122 119/119/115
f 124/124/123 121/121/120 125/125/124
f 125/125/124 127/127/126 124/124/123
f 126/126/125 124/124/123 127/127/126
f 127/127/126 130/130/129 126/126/125
f 127/127/126 125/125/124 128/128/127
f 128/128/127 129/129/128 127/127/126
f 130/130/129 127/127/126 129/129/128
f 129/129/128 131/131/130 130/130/129
f 126/126/125 130/130/129 132/132/131
f 132/132/131 134/134/133 126/126/125
f 132/132/131 130/130/129 131/131/130
f 131/131/130 133/133/132 132/132/131
f 132/132/131 133/133/132 135/135/134
f 135/135/134 136/136/135 132/132/131
f 134/134/133 132/132/131 136/136/135
f 136/136/135 137/137/136 134/134/133
f 138/138/137 137/137/136 136/136/135
f 136/136/135 139/139/138 138/138/137
f 139/139/138 136/136/135 135/135/134
f 135/135/134 141/141/140 139/139/138
f 140/140/139 138/138/137 139/139/138
f 139/139/138 142/142/141 140/140/139
f 142/142/141 139/139/138 141/141/140
f 141/141/140 143/143/142 142/142/141
f 106/106/106 107/107/107 145/145/144
f 145/145/144 146/146/145 106/106/106
f 122/122/121 113/113/113 146/146/145
f 146/146/145 147/147/146 122/122/121
f 123/123/122 122/122/121 147/147/146
f 147/147/146 148/148/147 123/123/122
f 148/148/147 147/147/146 149/149/148
f 149/149/148 150/150/149 148/148/147
f 151/151/150 150/150/149 149/149/148
f 149/149/148 152/152/151 151/151/150
f 152/152/151 149/149/148 145/145/144
f 145/145/144 144/144/143 152/152/151
f 153/153/152 151/151/150 152/152/151
f 152/152/151 154/154/153 153/153/152
f 154/154/153 152/152/151 144/144/143
f 144/144/143 156/156/155 154/154/153
f 155/155/154 153/153/152 154/154/153
f 154/154/153 157/157/156 155/155/154
f 157/157/156 154/154/153 156/156/155
f 156/156/155 158/158/157 157/157/156
f 161/161/162 160/160/160 47/47/161
f 47/47/161 48/48/160 161/161/162
f 163/163/165 90/90/164 88/88/165
f 88/88/165 164/164/166 163/163/165
f 165/165/168 95/95/167 90/90/168
f 90/90/168 163/163/169 165/165/168
f 147/147/175 146/146/173 145/145/174
f 145/145/174 149/149/173 147/147/175
f 169/169/178 17/17/177 18/18/178
f 18/18/178 170/170/179 169/169/178
f 171/171/181 15/15/180 17/17/181
f 17/17/181 169/169/182 171/171/181
f 172/172/184 169/169/183 170/170/184
f 170/170/184 173/173/185 172/172/184
f 174/174/187 171/171/186 169/169/187
f 169/169/187 172/172/188 174/174/187
f 175/175/190 10/10/189 14/14/190
f 14/14/190 176/176/191 175/175/190
f 177/177/192 176/176/192 14/14/192
f 14/14/192 178/178/192 177/177/192

